:SAMPLES-PER-SECOND 30
:FULLY-SPECIFIED
:DEGREES
62
root  12.5489 39.3083 -4.94909 -164.366 -79.6699 152.565
RightUpLeg  -3.81633 -2.0046 -18.0843
RightLeg  19.6225 2.66338 0.842945
RightFoot  -4.13702 -0.734876 11.1901
RightToes  0.00048216 0.542163 -0.142577
Spine  9.84904 -3.61587 0.948146
Spine1  13.8613 -5.39799 4.5994
HEad  0.433678 16.2527 -10.275
LeftShoulder1  9.00504 -12.604 -48.8038
LeftArm  -7.15867 13.2459 -27.77
LeftForeArm  30.1964 -18.8355 -3.70322
LeftHand  -0.25398 0.0180481 5.50724
RightShoulder  4.88075 7.70609 37.5114
RightArm  -9.76579 -24.331 26.6971
RightForeArm  21.1669 8.86036 4.92702
RightHand  -1.58886 6.93124 -15.3042
LeftUpLeg  -0.0397277 14.9297 1.02051
LeftLeg  23.3504 6.91745 3.59991
LeftFoot  -10.848 0.0768673 -2.73964
LeftToes  1.06241e-005 4.65855e-005 -8.18508e-006
63
root  12.5637 39.3792 -5.17699 -161.672 -81.5089 150.111
RightUpLeg  -3.06718 -3.37544 -17.5479
RightLeg  19.2218 2.05523 0.584426
RightFoot  -4.2517 -0.69644 10.7435
RightToes  0.00048216 0.542163 -0.142577
Spine  9.54614 -3.28005 0.5532
Spine1  13.768 -4.6844 3.53661
HEad  -0.917743 15.6884 -11.5765
LeftShoulder1  8.99452 -12.5669 -48.8592
LeftArm  -9.67276 14.0428 -26.3073
LeftForeArm  31.0129 -14.5465 -4.37851
LeftHand  -0.25398 0.0180481 5.50724
RightShoulder  4.93899 7.77633 37.7481
RightArm  -10.1838 -23.8343 27.2576
RightForeArm  20.4162 9.37804 4.94396
RightHand  -1.57469 7.0548 -15.0309
LeftUpLeg  -0.257025 13.4811 1.47132
LeftLeg  22.7853 6.4132 3.28514
LeftFoot  -10.3597 0.0872756 -2.89961
LeftToes  1.06241e-005 4.65855e-005 -8.18508e-006
64
root  12.5886 39.4285 -5.35798 -158.978 -82.8951 147.677
RightUpLeg  -2.58513 -4.67587 -17.1358
RightLeg  18.8739 1.84808 0.48111
RightFoot  -4.37252 -0.673948 10.5497
RightToes  0.00048216 0.542163 -0.142577
Spine  9.55747 -2.91882 0.275358
Spine1  13.4441 -3.9194 2.40748
HEad  -2.10604 14.997 -12.7589
LeftShoulder1  9.0217 -12.6273 -48.8239
LeftArm  -11.0513 15.1311 -25.0561
LeftForeArm  31.3051 -11.1894 -4.65064
LeftHand  -0.25398 0.0180481 5.50724
RightShoulder  5.01656 7.88924 37.9861
RightArm  -9.8463 -22.4116 27.444
RightForeArm  19.5769 10.3118 5.10511
RightHand  -1.5744 7.18926 -14.8769
LeftUpLeg  -0.5957 12.2246 1.80085
LeftLeg  22.4324 6.16516 3.12524
LeftFoot  -9.96002 0.0969114 -3.04623
LeftToes  1.06241e-005 4.65855e-005 -8.18508e-006
65
root  12.6226 39.4656 -5.50269 -157.136 -83.7807 146.072
RightUpLeg  -2.34616 -5.66213 -16.7633
RightLeg  18.5753 1.82995 0.44248
RightFoot  -4.35462 -0.667977 10.4276
RightToes  0.00048216 0.542163 -0.142577
Spine  9.90539 -2.43653 0.033077
Spine1  12.8403 -3.04891 1.31932
HEad  -3.23691 13.9635 -13.8892
LeftShoulder1  9.09612 -12.7832 -48.7559
LeftArm  -11.0871 16.5788 -24.0677
LeftForeArm  31.0842 -9.14554 -4.68862
LeftHand  -0.25398 0.0180481 5.50724
RightShoulder  5.12444 8.07619 38.1988
RightArm  -8.8459 -20.4319 27.3629
RightForeArm  17.8215 11.7176 5.31094
RightHand  -1.63798 7.36704 -15.2484
LeftUpLeg  -0.899437 11.4886 2.12122
LeftLeg  22.1535 5.94872 2.99282
LeftFoot  -9.59804 0.101322 -3.11521
LeftToes  1.06241e-005 4.65855e-005 -8.18508e-006
66
root  12.654 39.4981 -5.6231 -156.702 -84.331 145.817
RightUpLeg  -2.21497 -6.29694 -16.3655
RightLeg  18.2975 1.8165 0.41014
RightFoot  -4.24596 -0.667582 10.2737
RightToes  0.00048216 0.542163 -0.142577
Spine  10.4113 -1.90263 -0.252052
Spine1  12.2045 -2.19431 0.376773
HEad  -4.4101 12.7304 -14.958
LeftShoulder1  9.1619 -12.9055 -48.7429
LeftArm  -10.6413 18.2329 -23.2875
LeftForeArm  31.1502 -8.48287 -4.68447
LeftHand  -0.25398 0.0180481 5.50724
RightShoulder  5.23391 8.28116 38.3525
RightArm  -7.12223 -17.9372 27.162
RightForeArm  14.7667 13.4895 5.47834
RightHand  -1.75998 7.5684 -16.0974
LeftUpLeg  -1.07021 11.2595 2.52581
LeftLeg  21.8753 5.62159 2.81465
LeftFoot  -9.32349 0.105521 -3.17967
LeftToes  1.06241e-005 4.65855e-005 -8.18508e-006
67
root  12.6791 39.524 -5.71754 -157.324 -84.808 146.644
RightUpLeg  -2.16313 -6.82165 -15.9251
RightLeg  18.0411 1.79833 0.379077
RightFoot  -4.15363 -0.663442 10.0865
RightToes  0.00048216 0.542163 -0.142577
Spine  10.7784 -1.44439 -0.458661
Spine1  11.7885 -1.46248 -0.454575
HEad  -5.5012 11.4868 -15.8119
LeftShoulder1  9.16908 -12.9211 -48.7347
LeftArm  -10.3449 19.7545 -22.8006
LeftForeArm  31.8143 -8.6708 -4.65656
LeftHand  -0.25398 0.0180481 5.50724
RightShoulder  5.29201 8.40697 38.3706
RightArm  -4.89234 -15.0588 27.0982
RightForeArm  11.0869 15.7252 5.41673
RightHand  -1.88002 7.77429 -16.8975
LeftUpLeg  -1.29257 11.1317 2.96939
LeftLeg  21.7109 5.29297 2.65206
LeftFoot  -9.17525 0.113928 -3.30358
LeftToes  1.06241e-005 4.65855e-005 -8.18508e-006
68
root  12.7007 39.5395 -5.78027 -158.184 -85.2706 147.842
RightUpLeg  -2.3057 -7.32088 -15.4987
RightLeg  17.8659 1.75433 0.348024
RightFoot  -4.07771 -0.658457 9.91142
RightToes  0.00048216 0.542163 -0.142577
Spine  10.908 -1.06013 -0.473167
Spine1  11.5002 -0.784386 -1.32846
HEad  -6.22435 10.2712 -16.1573
LeftShoulder1  9.13537 -12.9002 -48.6169
LeftArm  -10.1847 20.9799 -22.68
LeftForeArm  32.7169 -9.15287 -4.6133
LeftHand  -0.25398 0.0180481 5.50724
RightShoulder  5.30246 8.46481 38.2484
RightArm  -3.04855 -12.3325 27.3687
RightForeArm  7.82334 18.6796 4.97698
RightHand  -1.95224 7.94201 -17.3111
LeftUpLeg  -1.76312 10.8831 3.30428
LeftLeg  21.7354 5.12241 2.58031
LeftFoot  -9.07589 0.122296 -3.41757
LeftToes  1.06241e-005 4.65855e-005 -8.18508e-006
69
root  12.7181 39.5457 -5.81671 -158.401 -85.668 148.476
RightUpLeg  -2.60697 -7.77859 -15.1853
RightLeg  17.7894 1.68243 0.319264
RightFoot  -3.974 -0.661103 9.82372
RightToes  0.00048216 0.542163 -0.142577
Spine  10.9922 -0.691122 -0.367928
Spine1  11.0797 -0.0815767 -2.3333
HEad  -6.49569 9.12777 -15.8009
LeftShoulder1  9.10655 -12.9174 -48.4114
LeftArm  -9.95115 21.9728 -22.7196
LeftForeArm  33.2694 -9.89657 -4.59943
LeftHand  -0.25398 0.0180481 5.50724
RightShoulder  5.32567 8.55201 38.1256
RightArm  -2.9841 -10.2423 27.8716
RightForeArm  5.94755 22.3295 4.67164
RightHand  -1.98885 8.00913 -17.5383
LeftUpLeg  -2.39177 10.6108 3.46177
LeftLeg  21.87 5.0896 2.58026
LeftFoot  -8.92356 0.125224 -3.39859
LeftToes  1.06241e-005 4.65855e-005 -8.18508e-006
70
root  12.7302 39.5454 -5.83993 -157.852 -86.094 148.258
RightUpLeg  -2.82391 -8.30152 -14.9798
RightLeg  17.7502 1.65391 0.313585
RightFoot  -3.85325 -0.669934 9.81223
RightToes  0.00048216 0.542163 -0.142577
Spine  11.235 -0.358983 -0.242904
Spine1  10.4866 0.565669 -3.33169
HEad  -6.49205 8.15921 -14.8856
LeftShoulder1  9.1008 -12.9462 -48.2952
LeftArm  -9.63132 22.6984 -22.6447
LeftForeArm  33.1141 -11.0092 -4.56681
LeftHand  -0.25398 0.0180481 5.50724
RightShoulder  5.38687 8.69017 38.127
RightArm  -4.9585 -8.71374 28.3399
RightForeArm  5.72673 26.3249 5.3304
RightHand  -2.03736 8.01349 -17.9422
LeftUpLeg  -2.96594 10.3711 3.56356
LeftLeg  22.0579 5.02895 2.57339
LeftFoot  -8.73488 0.126018 -3.2363
LeftToes  1.06241e-005 4.65855e-005 -8.18508e-006
71
root  12.7403 39.5402 -5.85707 -157.365 -86.6646 147.952
RightUpLeg  -2.85043 -8.91812 -14.7626
RightLeg  17.7363 1.64282 0.32142
RightFoot  -3.75606 -0.672391 9.7336
RightToes  0.00048216 0.542163 -0.142577
Spine  11.6074 -0.0960809 -0.127406
Spine1  9.8962 1.04918 -4.0566
HEad  -6.35746 7.39429 -13.7985
LeftShoulder1  9.11207 -12.9353 -48.3879
LeftArm  -9.53342 22.956 -22.469
LeftForeArm  32.5802 -12.1856 -4.4267
LeftHand  -0.25398 0.0180481 5.50724
RightShoulder  5.44815 8.81335 38.1809
RightArm  -6.49727 -7.37325 28.7845
RightForeArm  5.52076 30.3618 6.328
RightHand  -2.10341 8.01708 -18.4956
LeftUpLeg  -3.43043 10.0859 3.75681
LeftLeg  22.3256 4.84589 2.51956
LeftFoot  -8.59017 0.124998 -3.05861
LeftToes  1.06241e-005 4.65855e-005 -8.18508e-006
